<svg viewBox="-0.03 4.80 24.02 14.34" xmlns="http://www.w3.org/2000/svg"><g fill="none"><path d="m0 0h24v24h-24z"/><path d="m8 6c3.3137 0 6 2.68629 6 6 0 3.3137-2.6863 6-6 6-3.31371 0-6-2.6863-6-6 0-3.31371 2.68629-6 6-6zm9 1c1.5 0 2.5 2.23858 2.5 5 0 2.7614-1 5-2.5 5s-2.5-2.2386-2.5-5c0-2.76142 1-5 2.5-5zm4 .5c.3808966 0 .7120428.82691082.8808962 2.24595777l.0456747.44324343c.0067635.0767563.0130931.1549343.0189748.2345045l.0298022.4938944c.0040337.0850221.0075912.1713778.0106587.2590378l.0124104.541376c.0010507.0927596.001583.1867647.001583.2819861l-.001583.2819842-.0124104.541373c-.0030675.0876595-.006625.1740148-.0106587.2590365l-.0298022.4938928c-.0058817.07957-.0122113.1577478-.0189748.234504l-.0456747.4432429c-.1688534 1.4190463-.4999996 2.2459666-.8808962 2.2459666s-.7120428-.8269203-.8808962-2.2459666l-.0456747-.4432429c-.0067635-.0767562-.0130931-.154934-.0189748-.234504l-.0298022-.4938928c-.0040337-.0850217-.0075912-.171377-.0106587-.2590365l-.0124104-.541373v-.5639703l.0124104-.541376c.0030675-.08766.006625-.1740157.0106587-.2590378l.0298022-.4938944c.0058817-.0795702.0122113-.1577482.0189748-.2345045l.0456747-.44324343c.1688534-1.41904695.4999996-2.24595777.8808962-2.24595777z" fill="#ffff"/></g></svg>